<?xml version="1.0" encoding="UTF-8" standalone="no"?>
<!DOCTYPE svg PUBLIC "-//W3C//DTD SVG 1.1//EN"
 "http://www.w3.org/Graphics/SVG/1.1/DTD/svg11.dtd">
<!-- Generated by graphviz version 2.38.0 (20140413.2041)
 -->
<!-- Title: G Pages: 1 -->
<svg width="423pt" height="852pt"
 viewBox="0.00 0.00 423.05 852.00" xmlns="http://www.w3.org/2000/svg" xmlns:xlink="http://www.w3.org/1999/xlink">
<g id="graph0" class="graph" transform="scale(1 1) rotate(0) translate(4 848)">
<title>G</title>
<polygon fill="white" stroke="none" points="-4,4 -4,-848 419.046,-848 419.046,4 -4,4"/>
<g id="clust1" class="cluster"><title>cluster_Global</title>
<path fill="none" stroke="gray" d="M20,-44C20,-44 395.046,-44 395.046,-44 401.046,-44 407.046,-50 407.046,-56 407.046,-56 407.046,-824 407.046,-824 407.046,-830 401.046,-836 395.046,-836 395.046,-836 20,-836 20,-836 14,-836 8,-830 8,-824 8,-824 8,-56 8,-56 8,-50 14,-44 20,-44"/>
<text text-anchor="middle" x="207.523" y="-823.2" font-family="Times New Roman,serif" font-size="11.00" fill="gray">Global</text>
</g>
<g id="clust2" class="cluster"><title>cluster_\MischiefCollective</title>
<path fill="none" stroke="gray" d="M28,-52C28,-52 387.046,-52 387.046,-52 393.046,-52 399.046,-58 399.046,-64 399.046,-64 399.046,-796 399.046,-796 399.046,-802 393.046,-808 387.046,-808 387.046,-808 28,-808 28,-808 22,-808 16,-802 16,-796 16,-796 16,-64 16,-64 16,-58 22,-52 28,-52"/>
<text text-anchor="middle" x="207.523" y="-795.2" font-family="Times New Roman,serif" font-size="11.00" fill="gray">MischiefCollective</text>
</g>
<g id="clust3" class="cluster"><title>cluster_\MischiefCollective\ColorJizz</title>
<path fill="none" stroke="gray" d="M36,-60C36,-60 379.046,-60 379.046,-60 385.046,-60 391.046,-66 391.046,-72 391.046,-72 391.046,-768 391.046,-768 391.046,-774 385.046,-780 379.046,-780 379.046,-780 36,-780 36,-780 30,-780 24,-774 24,-768 24,-768 24,-72 24,-72 24,-66 30,-60 36,-60"/>
<text text-anchor="middle" x="207.523" y="-767.2" font-family="Times New Roman,serif" font-size="11.00" fill="gray">ColorJizz</text>
</g>
<g id="clust4" class="cluster"><title>cluster_\MischiefCollective\ColorJizz\Formats</title>
<path fill="none" stroke="gray" d="M261.046,-194C261.046,-194 310.046,-194 310.046,-194 316.046,-194 322.046,-200 322.046,-206 322.046,-206 322.046,-740 322.046,-740 322.046,-746 316.046,-752 310.046,-752 310.046,-752 261.046,-752 261.046,-752 255.046,-752 249.046,-746 249.046,-740 249.046,-740 249.046,-206 249.046,-206 249.046,-200 255.046,-194 261.046,-194"/>
<text text-anchor="middle" x="285.546" y="-739.2" font-family="Times New Roman,serif" font-size="11.00" fill="gray">Formats</text>
</g>
<g id="clust5" class="cluster"><title>cluster_\MischiefCollective\ColorJizz\Exceptions</title>
<path fill="none" stroke="gray" d="M200.046,-114C200.046,-114 371.046,-114 371.046,-114 377.046,-114 383.046,-120 383.046,-126 383.046,-126 383.046,-174 383.046,-174 383.046,-180 377.046,-186 371.046,-186 371.046,-186 200.046,-186 200.046,-186 194.046,-186 188.046,-180 188.046,-174 188.046,-174 188.046,-126 188.046,-126 188.046,-120 194.046,-114 200.046,-114"/>
<text text-anchor="middle" x="285.546" y="-173.2" font-family="Times New Roman,serif" font-size="11.00" fill="gray">Exceptions</text>
</g>
<!-- \\MischiefCollective\\ColorJizz\\Formats\\RGB -->
<g id="node1" class="node"><title>\\MischiefCollective\\ColorJizz\\Formats\\RGB</title>
<polygon fill="none" stroke="black" points="312.546,-724 258.546,-724 258.546,-688 312.546,-688 312.546,-724"/>
<text text-anchor="middle" x="285.546" y="-703.2" font-family="Courier,monospace" font-size="11.00">RGB</text>
</g>
<!-- \\MischiefCollective\\ColorJizz\\ColorJizz -->
<g id="node13" class="node"><title>\\MischiefCollective\\ColorJizz\\ColorJizz</title>
<polygon fill="none" stroke="black" points="116,-481 32,-481 32,-445 116,-445 116,-481"/>
<text text-anchor="start" x="40" y="-466.2" font-family="Courier,monospace" font-size="11.00">«abstract»</text>
<text text-anchor="start" x="43.5" y="-454.2" font-family="Courier,monospace" font-size="11.00">ColorJizz</text>
</g>
<!-- \\MischiefCollective\\ColorJizz\\Formats\\RGB&#45;&gt;\\MischiefCollective\\ColorJizz\\ColorJizz -->
<g id="edge1" class="edge"><title>\\MischiefCollective\\ColorJizz\\Formats\\RGB&#45;&gt;\\MischiefCollective\\ColorJizz\\ColorJizz</title>
<path fill="none" stroke="black" d="M258.195,-704.29C237.181,-701.697 208.054,-695.204 188.046,-679 126.711,-629.327 94.7498,-537.412 81.9133,-491.15"/>
<polygon fill="none" stroke="black" points="85.2206,-489.969 79.2569,-481.212 78.458,-491.777 85.2206,-489.969"/>
</g>
<!-- \\MischiefCollective\\ColorJizz\\Formats\\CMY -->
<g id="node2" class="node"><title>\\MischiefCollective\\ColorJizz\\Formats\\CMY</title>
<polygon fill="none" stroke="black" points="312.546,-670 258.546,-670 258.546,-634 312.546,-634 312.546,-670"/>
<text text-anchor="middle" x="285.546" y="-649.2" font-family="Courier,monospace" font-size="11.00">CMY</text>
</g>
<!-- \\MischiefCollective\\ColorJizz\\Formats\\CMY&#45;&gt;\\MischiefCollective\\ColorJizz\\ColorJizz -->
<g id="edge2" class="edge"><title>\\MischiefCollective\\ColorJizz\\Formats\\CMY&#45;&gt;\\MischiefCollective\\ColorJizz\\ColorJizz</title>
<path fill="none" stroke="black" d="M258.302,-649.533C237.624,-646.506 208.901,-639.8 188.046,-625 138.961,-590.166 104.047,-526.957 86.9435,-490.649"/>
<polygon fill="none" stroke="black" points="89.9451,-488.798 82.5947,-481.167 83.5824,-491.716 89.9451,-488.798"/>
</g>
<!-- \\MischiefCollective\\ColorJizz\\Formats\\CIELCh -->
<g id="node3" class="node"><title>\\MischiefCollective\\ColorJizz\\Formats\\CIELCh</title>
<polygon fill="none" stroke="black" points="314.046,-616 257.046,-616 257.046,-580 314.046,-580 314.046,-616"/>
<text text-anchor="middle" x="285.546" y="-595.2" font-family="Courier,monospace" font-size="11.00">CIELCh</text>
</g>
<!-- \\MischiefCollective\\ColorJizz\\Formats\\CIELCh&#45;&gt;\\MischiefCollective\\ColorJizz\\ColorJizz -->
<g id="edge4" class="edge"><title>\\MischiefCollective\\ColorJizz\\Formats\\CIELCh&#45;&gt;\\MischiefCollective\\ColorJizz\\ColorJizz</title>
<path fill="none" stroke="black" d="M256.951,-593.979C236.855,-590.195 209.512,-583.225 188.046,-571 150.75,-549.76 116.398,-513.554 95.5824,-488.974"/>
<polygon fill="none" stroke="black" points="98.1407,-486.577 89.0574,-481.123 92.757,-491.051 98.1407,-486.577"/>
</g>
<!-- \\MischiefCollective\\ColorJizz\\Formats\\CIELab -->
<g id="node4" class="node"><title>\\MischiefCollective\\ColorJizz\\Formats\\CIELab</title>
<polygon fill="none" stroke="black" points="314.046,-562 257.046,-562 257.046,-526 314.046,-526 314.046,-562"/>
<text text-anchor="middle" x="285.546" y="-541.2" font-family="Courier,monospace" font-size="11.00">CIELab</text>
</g>
<!-- \\MischiefCollective\\ColorJizz\\Formats\\CIELab&#45;&gt;\\MischiefCollective\\ColorJizz\\ColorJizz -->
<g id="edge5" class="edge"><title>\\MischiefCollective\\ColorJizz\\Formats\\CIELab&#45;&gt;\\MischiefCollective\\ColorJizz\\ColorJizz</title>
<path fill="none" stroke="black" d="M256.686,-537.563C237.188,-532.731 210.684,-525.501 188.046,-517 164.384,-508.115 138.912,-496.17 118.147,-485.773"/>
<polygon fill="none" stroke="black" points="119.464,-482.517 108.961,-481.122 116.302,-488.762 119.464,-482.517"/>
</g>
<!-- \\MischiefCollective\\ColorJizz\\Formats\\CMYK -->
<g id="node5" class="node"><title>\\MischiefCollective\\ColorJizz\\Formats\\CMYK</title>
<polygon fill="none" stroke="black" points="312.546,-508 258.546,-508 258.546,-472 312.546,-472 312.546,-508"/>
<text text-anchor="middle" x="285.546" y="-487.2" font-family="Courier,monospace" font-size="11.00">CMYK</text>
</g>
<!-- \\MischiefCollective\\ColorJizz\\Formats\\CMYK&#45;&gt;\\MischiefCollective\\ColorJizz\\ColorJizz -->
<g id="edge6" class="edge"><title>\\MischiefCollective\\ColorJizz\\Formats\\CMYK&#45;&gt;\\MischiefCollective\\ColorJizz\\ColorJizz</title>
<path fill="none" stroke="black" d="M258.43,-486.635C225.49,-482.391 168.105,-474.997 126.272,-469.606"/>
<polygon fill="none" stroke="black" points="126.629,-466.124 116.264,-468.317 125.734,-473.066 126.629,-466.124"/>
</g>
<!-- \\MischiefCollective\\ColorJizz\\Formats\\HSL -->
<g id="node6" class="node"><title>\\MischiefCollective\\ColorJizz\\Formats\\HSL</title>
<polygon fill="none" stroke="black" points="312.546,-454 258.546,-454 258.546,-418 312.546,-418 312.546,-454"/>
<text text-anchor="middle" x="285.546" y="-433.2" font-family="Courier,monospace" font-size="11.00">HSL</text>
</g>
<!-- \\MischiefCollective\\ColorJizz\\Formats\\HSL&#45;&gt;\\MischiefCollective\\ColorJizz\\ColorJizz -->
<g id="edge7" class="edge"><title>\\MischiefCollective\\ColorJizz\\Formats\\HSL&#45;&gt;\\MischiefCollective\\ColorJizz\\ColorJizz</title>
<path fill="none" stroke="black" d="M258.43,-439.365C225.49,-443.609 168.105,-451.003 126.272,-456.394"/>
<polygon fill="none" stroke="black" points="125.734,-452.934 116.264,-457.683 126.629,-459.876 125.734,-452.934"/>
</g>
<!-- \\MischiefCollective\\ColorJizz\\Formats\\Hex -->
<g id="node7" class="node"><title>\\MischiefCollective\\ColorJizz\\Formats\\Hex</title>
<polygon fill="none" stroke="black" points="312.546,-400 258.546,-400 258.546,-364 312.546,-364 312.546,-400"/>
<text text-anchor="middle" x="285.546" y="-379.2" font-family="Courier,monospace" font-size="11.00">Hex</text>
</g>
<!-- \\MischiefCollective\\ColorJizz\\Formats\\Hex&#45;&gt;\\MischiefCollective\\ColorJizz\\ColorJizz -->
<g id="edge8" class="edge"><title>\\MischiefCollective\\ColorJizz\\Formats\\Hex&#45;&gt;\\MischiefCollective\\ColorJizz\\ColorJizz</title>
<path fill="none" stroke="black" d="M258.351,-388.026C238.717,-392.854 211.335,-400.254 188.046,-409 164.384,-417.885 138.912,-429.83 118.147,-440.227"/>
<polygon fill="none" stroke="black" points="116.302,-437.238 108.961,-444.878 119.464,-443.483 116.302,-437.238"/>
</g>
<!-- \\MischiefCollective\\ColorJizz\\Formats\\HSV -->
<g id="node8" class="node"><title>\\MischiefCollective\\ColorJizz\\Formats\\HSV</title>
<polygon fill="none" stroke="black" points="312.546,-346 258.546,-346 258.546,-310 312.546,-310 312.546,-346"/>
<text text-anchor="middle" x="285.546" y="-325.2" font-family="Courier,monospace" font-size="11.00">HSV</text>
</g>
<!-- \\MischiefCollective\\ColorJizz\\Formats\\HSV&#45;&gt;\\MischiefCollective\\ColorJizz\\ColorJizz -->
<g id="edge9" class="edge"><title>\\MischiefCollective\\ColorJizz\\Formats\\HSV&#45;&gt;\\MischiefCollective\\ColorJizz\\ColorJizz</title>
<path fill="none" stroke="black" d="M258.214,-331.785C238.013,-335.512 209.966,-342.516 188.046,-355 150.75,-376.24 116.398,-412.446 95.5824,-437.026"/>
<polygon fill="none" stroke="black" points="92.757,-434.949 89.0574,-444.877 98.1407,-439.423 92.757,-434.949"/>
</g>
<!-- \\MischiefCollective\\ColorJizz\\Formats\\Yxy -->
<g id="node9" class="node"><title>\\MischiefCollective\\ColorJizz\\Formats\\Yxy</title>
<polygon fill="none" stroke="black" points="312.546,-292 258.546,-292 258.546,-256 312.546,-256 312.546,-292"/>
<text text-anchor="middle" x="285.546" y="-271.2" font-family="Courier,monospace" font-size="11.00">Yxy</text>
</g>
<!-- \\MischiefCollective\\ColorJizz\\Formats\\Yxy&#45;&gt;\\MischiefCollective\\ColorJizz\\ColorJizz -->
<g id="edge10" class="edge"><title>\\MischiefCollective\\ColorJizz\\Formats\\Yxy&#45;&gt;\\MischiefCollective\\ColorJizz\\ColorJizz</title>
<path fill="none" stroke="black" d="M258.302,-276.467C237.624,-279.494 208.901,-286.2 188.046,-301 138.961,-335.834 104.047,-399.043 86.9435,-435.351"/>
<polygon fill="none" stroke="black" points="83.5824,-434.284 82.5947,-444.833 89.9451,-437.202 83.5824,-434.284"/>
</g>
<!-- \\MischiefCollective\\ColorJizz\\Formats\\XYZ -->
<g id="node10" class="node"><title>\\MischiefCollective\\ColorJizz\\Formats\\XYZ</title>
<polygon fill="none" stroke="black" points="312.546,-238 258.546,-238 258.546,-202 312.546,-202 312.546,-238"/>
<text text-anchor="middle" x="285.546" y="-217.2" font-family="Courier,monospace" font-size="11.00">XYZ</text>
</g>
<!-- \\MischiefCollective\\ColorJizz\\Formats\\XYZ&#45;&gt;\\MischiefCollective\\ColorJizz\\ColorJizz -->
<g id="edge11" class="edge"><title>\\MischiefCollective\\ColorJizz\\Formats\\XYZ&#45;&gt;\\MischiefCollective\\ColorJizz\\ColorJizz</title>
<path fill="none" stroke="black" d="M258.195,-221.71C237.181,-224.303 208.054,-230.796 188.046,-247 126.711,-296.673 94.7498,-388.588 81.9133,-434.85"/>
<polygon fill="none" stroke="black" points="78.458,-434.223 79.2569,-444.788 85.2206,-436.031 78.458,-434.223"/>
</g>
<!-- \\MischiefCollective\\ColorJizz\\Exceptions\\InvalidArgumentException -->
<g id="node11" class="node"><title>\\MischiefCollective\\ColorJizz\\Exceptions\\InvalidArgumentException</title>
<polygon fill="none" stroke="black" points="375.046,-158 196.046,-158 196.046,-122 375.046,-122 375.046,-158"/>
<text text-anchor="middle" x="285.546" y="-137.2" font-family="Courier,monospace" font-size="11.00">InvalidArgumentException</text>
</g>
<!-- \\Exception -->
<g id="node14" class="node"><title>\\Exception</title>
<ellipse fill="none" stroke="black" cx="74" cy="-18" rx="50.0912" ry="18"/>
<text text-anchor="middle" x="74" y="-14.3" font-family="Times New Roman,serif" font-size="14.00" fill="gray">\Exception</text>
</g>
<!-- \\MischiefCollective\\ColorJizz\\Exceptions\\InvalidArgumentException&#45;&gt;\\Exception -->
<g id="edge3" class="edge"><title>\\MischiefCollective\\ColorJizz\\Exceptions\\InvalidArgumentException&#45;&gt;\\Exception</title>
<path fill="none" stroke="black" d="M195.98,-121.919C193.266,-120.697 190.614,-119.392 188.046,-118 153.231,-99.1233 153.966,-81.945 124.046,-56 117.98,-50.7405 111.289,-45.3226 104.851,-40.2843"/>
<polygon fill="none" stroke="black" points="106.953,-37.485 96.8979,-34.1459 102.676,-43.0265 106.953,-37.485"/>
</g>
<!-- \\MischiefCollective\\ColorJizz\\Autoloader -->
<g id="node12" class="node"><title>\\MischiefCollective\\ColorJizz\\Autoloader</title>
<polygon fill="none" stroke="black" points="327.546,-104 243.546,-104 243.546,-68 327.546,-68 327.546,-104"/>
<text text-anchor="middle" x="285.546" y="-83.2" font-family="Courier,monospace" font-size="11.00">Autoloader</text>
</g>
</g>
</svg>
